<svg width="270" height="300" viewBox="0 0 270 300" fill="none" xmlns="http://www.w3.org/2000/svg">
<rect width="270" height="300" fill="#D8D8D8"/>
<g clip-path="url(#clip0_5481_2013)">
<path d="M157.501 89.9995C157.501 94.1432 154.145 97.4995 150.001 97.4995C145.857 97.4995 142.501 94.1432 142.501 89.9995C142.501 85.8557 145.857 82.4995 150.001 82.4995C154.145 82.4995 157.501 85.8557 157.501 89.9995ZM178.902 148.901C178.171 149.632 177.211 149.999 176.251 149.999C175.291 149.999 174.331 149.632 173.6 148.901L91.0997 66.4007C89.6334 64.9345 89.6334 62.5645 91.0997 61.0982C92.5659 59.632 94.9359 59.632 96.4022 61.0982L102.162 66.8582C105.215 64.8407 108.803 63.7495 112.501 63.7495H157.501C167.84 63.7495 176.251 72.1607 176.251 82.4995V127.499C176.251 131.201 175.16 134.789 173.142 137.838L178.902 143.598C180.368 145.064 180.368 147.434 178.902 148.901ZM107.652 72.3482L167.652 132.348C168.368 130.848 168.751 129.191 168.751 127.499V82.4995C168.751 76.297 163.703 71.2495 157.501 71.2495H112.501C110.81 71.2495 109.156 71.632 107.652 72.3482ZM153.751 138.749H112.501C106.79 138.749 102.065 134.474 101.348 128.954L118.902 111.401C120.368 109.934 120.368 107.564 118.902 106.098C117.436 104.632 115.066 104.632 113.6 106.098L101.251 118.447V86.2495C101.251 84.1757 99.5709 82.4995 97.5009 82.4995C95.4309 82.4995 93.7509 84.1757 93.7509 86.2495V127.499C93.7509 137.838 102.162 146.249 112.501 146.249H153.751C155.821 146.249 157.501 144.573 157.501 142.499C157.501 140.426 155.821 138.749 153.751 138.749Z" fill="#939393"/>
</g>
<path d="M69.5807 192V171H72.9557L82.6007 186.36V171H85.7207V192H82.3457L72.7007 176.64V192H69.5807ZM96.3217 192.39C94.9417 192.39 93.6817 192.035 92.5417 191.325C91.4117 190.615 90.5067 189.665 89.8267 188.475C89.1567 187.275 88.8217 185.95 88.8217 184.5C88.8217 183.4 89.0167 182.375 89.4067 181.425C89.7967 180.465 90.3317 179.625 91.0117 178.905C91.7017 178.175 92.5017 177.605 93.4117 177.195C94.3217 176.785 95.2917 176.58 96.3217 176.58C97.7017 176.58 98.9567 176.935 100.087 177.645C101.227 178.355 102.132 179.31 102.802 180.51C103.482 181.71 103.822 183.04 103.822 184.5C103.822 185.59 103.627 186.61 103.237 187.56C102.847 188.51 102.307 189.35 101.617 190.08C100.937 190.8 100.142 191.365 99.2317 191.775C98.3317 192.185 97.3617 192.39 96.3217 192.39ZM96.3217 189.27C97.1517 189.27 97.8967 189.05 98.5567 188.61C99.2167 188.17 99.7367 187.59 100.117 186.87C100.507 186.14 100.702 185.35 100.702 184.5C100.702 183.63 100.502 182.83 100.102 182.1C99.7117 181.37 99.1867 180.79 98.5267 180.36C97.8667 179.92 97.1317 179.7 96.3217 179.7C95.5017 179.7 94.7567 179.92 94.0867 180.36C93.4267 180.8 92.9017 181.385 92.5117 182.115C92.1317 182.845 91.9417 183.64 91.9417 184.5C91.9417 185.39 92.1417 186.195 92.5417 186.915C92.9417 187.635 93.4717 188.21 94.1317 188.64C94.8017 189.06 95.5317 189.27 96.3217 189.27ZM115.366 192V171H118.486V192H115.366ZM123.133 192V177H126.253V178.59C126.773 177.97 127.408 177.48 128.158 177.12C128.918 176.76 129.738 176.58 130.618 176.58C131.688 176.58 132.673 176.84 133.573 177.36C134.473 177.87 135.188 178.55 135.718 179.4C136.248 178.55 136.953 177.87 137.833 177.36C138.723 176.84 139.703 176.58 140.773 176.58C141.883 176.58 142.893 176.85 143.803 177.39C144.713 177.93 145.438 178.655 145.978 179.565C146.518 180.475 146.788 181.485 146.788 182.595V192H143.668V183.39C143.668 182.73 143.508 182.125 143.188 181.575C142.868 181.025 142.438 180.58 141.898 180.24C141.358 179.9 140.758 179.73 140.098 179.73C139.438 179.73 138.838 179.89 138.298 180.21C137.758 180.53 137.328 180.965 137.008 181.515C136.688 182.065 136.528 182.69 136.528 183.39V192H133.408V183.39C133.408 182.69 133.248 182.065 132.928 181.515C132.608 180.965 132.173 180.53 131.623 180.21C131.083 179.89 130.483 179.73 129.823 179.73C129.173 179.73 128.573 179.9 128.023 180.24C127.483 180.58 127.053 181.025 126.733 181.575C126.413 182.125 126.253 182.73 126.253 183.39V192H123.133ZM161.77 177H164.89V192H161.755L161.635 189.825C161.195 190.595 160.6 191.215 159.85 191.685C159.1 192.155 158.215 192.39 157.195 192.39C156.095 192.39 155.06 192.185 154.09 191.775C153.12 191.355 152.265 190.775 151.525 190.035C150.795 189.295 150.225 188.445 149.815 187.485C149.405 186.515 149.2 185.475 149.2 184.365C149.2 183.295 149.4 182.29 149.8 181.35C150.2 180.4 150.755 179.57 151.465 178.86C152.175 178.15 152.995 177.595 153.925 177.195C154.865 176.785 155.87 176.58 156.94 176.58C158.03 176.58 158.99 176.83 159.82 177.33C160.66 177.82 161.355 178.45 161.905 179.22L161.77 177ZM157.12 189.375C158 189.375 158.77 189.16 159.43 188.73C160.09 188.29 160.6 187.7 160.96 186.96C161.33 186.22 161.515 185.4 161.515 184.5C161.515 183.59 161.33 182.765 160.96 182.025C160.59 181.285 160.075 180.7 159.415 180.27C158.765 179.83 158 179.61 157.12 179.61C156.25 179.61 155.455 179.83 154.735 180.27C154.015 180.71 153.445 181.3 153.025 182.04C152.605 182.78 152.395 183.6 152.395 184.5C152.395 185.41 152.61 186.235 153.04 186.975C153.48 187.705 154.055 188.29 154.765 188.73C155.485 189.16 156.27 189.375 157.12 189.375ZM179.605 177H182.725V192.39C182.725 193.42 182.505 194.37 182.065 195.24C181.635 196.11 181.05 196.86 180.31 197.49C179.57 198.13 178.72 198.625 177.76 198.975C176.81 199.325 175.815 199.5 174.775 199.5C173.725 199.5 172.715 199.275 171.745 198.825C170.775 198.385 169.92 197.785 169.18 197.025C168.45 196.265 167.905 195.405 167.545 194.445L170.41 193.155C170.61 193.775 170.93 194.325 171.37 194.805C171.82 195.285 172.34 195.665 172.93 195.945C173.53 196.225 174.145 196.365 174.775 196.365C175.395 196.365 175.99 196.265 176.56 196.065C177.14 195.875 177.655 195.605 178.105 195.255C178.565 194.905 178.93 194.485 179.2 193.995C179.47 193.505 179.605 192.97 179.605 192.39V189.855C179.115 190.615 178.485 191.23 177.715 191.7C176.945 192.16 176.05 192.39 175.03 192.39C173.97 192.39 172.97 192.185 172.03 191.775C171.09 191.365 170.265 190.8 169.555 190.08C168.845 189.35 168.29 188.51 167.89 187.56C167.49 186.61 167.29 185.59 167.29 184.5C167.29 183.41 167.49 182.39 167.89 181.44C168.29 180.48 168.845 179.64 169.555 178.92C170.265 178.19 171.09 177.62 172.03 177.21C172.97 176.8 173.97 176.595 175.03 176.595C176.05 176.595 176.945 176.83 177.715 177.3C178.485 177.76 179.115 178.375 179.605 179.145V177ZM175.06 189.375C175.93 189.375 176.69 189.155 177.34 188.715C177.99 188.265 178.495 187.67 178.855 186.93C179.215 186.19 179.395 185.38 179.395 184.5C179.395 183.6 179.21 182.785 178.84 182.055C178.48 181.315 177.975 180.725 177.325 180.285C176.675 179.835 175.92 179.61 175.06 179.61C174.22 179.61 173.45 179.83 172.75 180.27C172.06 180.71 171.51 181.3 171.1 182.04C170.69 182.78 170.485 183.6 170.485 184.5C170.485 185.4 170.69 186.22 171.1 186.96C171.52 187.7 172.075 188.29 172.765 188.73C173.465 189.16 174.23 189.375 175.06 189.375ZM193.262 192.39C191.882 192.39 190.622 192.035 189.482 191.325C188.352 190.615 187.447 189.665 186.767 188.475C186.097 187.275 185.762 185.95 185.762 184.5C185.762 183.4 185.957 182.375 186.347 181.425C186.737 180.465 187.272 179.625 187.952 178.905C188.642 178.175 189.442 177.605 190.352 177.195C191.262 176.785 192.232 176.58 193.262 176.58C194.412 176.58 195.467 176.82 196.427 177.3C197.387 177.77 198.207 178.425 198.887 179.265C199.567 180.095 200.067 181.055 200.387 182.145C200.707 183.225 200.802 184.375 200.672 185.595H189.107C189.237 186.285 189.487 186.91 189.857 187.47C190.237 188.02 190.717 188.455 191.297 188.775C191.887 189.095 192.542 189.26 193.262 189.27C194.022 189.27 194.712 189.08 195.332 188.7C195.962 188.32 196.477 187.795 196.877 187.125L200.042 187.86C199.442 189.19 198.537 190.28 197.327 191.13C196.117 191.97 194.762 192.39 193.262 192.39ZM189.002 183.21H197.522C197.422 182.49 197.167 181.84 196.757 181.26C196.357 180.67 195.852 180.205 195.242 179.865C194.642 179.515 193.982 179.34 193.262 179.34C192.552 179.34 191.892 179.51 191.282 179.85C190.682 180.19 190.182 180.655 189.782 181.245C189.392 181.825 189.132 182.48 189.002 183.21ZM79.0034 210H82.6484L90.2834 231H86.9834L85.5284 227.01H76.1234L74.6834 231H71.3684L79.0034 210ZM77.2784 223.89H84.3734L80.8184 214.14L77.2784 223.89ZM100.103 231H96.0984L90.6234 215.97H93.9534L98.0934 227.4L102.248 215.97H105.563L100.103 231ZM119.555 216H122.675V231H119.54L119.42 228.825C118.98 229.595 118.385 230.215 117.635 230.685C116.885 231.155 116 231.39 114.98 231.39C113.88 231.39 112.845 231.185 111.875 230.775C110.905 230.355 110.05 229.775 109.31 229.035C108.58 228.295 108.01 227.445 107.6 226.485C107.19 225.515 106.985 224.475 106.985 223.365C106.985 222.295 107.185 221.29 107.585 220.35C107.985 219.4 108.54 218.57 109.25 217.86C109.96 217.15 110.78 216.595 111.71 216.195C112.65 215.785 113.655 215.58 114.725 215.58C115.815 215.58 116.775 215.83 117.605 216.33C118.445 216.82 119.14 217.45 119.69 218.22L119.555 216ZM114.905 228.375C115.785 228.375 116.555 228.16 117.215 227.73C117.875 227.29 118.385 226.7 118.745 225.96C119.115 225.22 119.3 224.4 119.3 223.5C119.3 222.59 119.115 221.765 118.745 221.025C118.375 220.285 117.86 219.7 117.2 219.27C116.55 218.83 115.785 218.61 114.905 218.61C114.035 218.61 113.24 218.83 112.52 219.27C111.8 219.71 111.23 220.3 110.81 221.04C110.39 221.78 110.18 222.6 110.18 223.5C110.18 224.41 110.395 225.235 110.825 225.975C111.265 226.705 111.84 227.29 112.55 227.73C113.27 228.16 114.055 228.375 114.905 228.375ZM126.268 216H129.388V231H126.268V216ZM127.858 213.825C127.378 213.825 126.978 213.67 126.658 213.36C126.338 213.05 126.178 212.66 126.178 212.19C126.178 211.73 126.338 211.345 126.658 211.035C126.978 210.715 127.373 210.555 127.843 210.555C128.303 210.555 128.693 210.715 129.013 211.035C129.333 211.345 129.493 211.73 129.493 212.19C129.493 212.66 129.333 213.05 129.013 213.36C128.703 213.67 128.318 213.825 127.858 213.825ZM133.636 231V208.5H136.756V231H133.636ZM152.41 216H155.53V231H152.395L152.275 228.825C151.835 229.595 151.24 230.215 150.49 230.685C149.74 231.155 148.855 231.39 147.835 231.39C146.735 231.39 145.7 231.185 144.73 230.775C143.76 230.355 142.905 229.775 142.165 229.035C141.435 228.295 140.865 227.445 140.455 226.485C140.045 225.515 139.84 224.475 139.84 223.365C139.84 222.295 140.04 221.29 140.44 220.35C140.84 219.4 141.395 218.57 142.105 217.86C142.815 217.15 143.635 216.595 144.565 216.195C145.505 215.785 146.51 215.58 147.58 215.58C148.67 215.58 149.63 215.83 150.46 216.33C151.3 216.82 151.995 217.45 152.545 218.22L152.41 216ZM147.76 228.375C148.64 228.375 149.41 228.16 150.07 227.73C150.73 227.29 151.24 226.7 151.6 225.96C151.97 225.22 152.155 224.4 152.155 223.5C152.155 222.59 151.97 221.765 151.6 221.025C151.23 220.285 150.715 219.7 150.055 219.27C149.405 218.83 148.64 218.61 147.76 218.61C146.89 218.61 146.095 218.83 145.375 219.27C144.655 219.71 144.085 220.3 143.665 221.04C143.245 221.78 143.035 222.6 143.035 223.5C143.035 224.41 143.25 225.235 143.68 225.975C144.12 226.705 144.695 227.29 145.405 227.73C146.125 228.16 146.91 228.375 147.76 228.375ZM167.04 215.58C168.5 215.58 169.825 215.935 171.015 216.645C172.215 217.355 173.17 218.31 173.88 219.51C174.59 220.7 174.945 222.025 174.945 223.485C174.945 224.575 174.74 225.6 174.33 226.56C173.92 227.51 173.35 228.35 172.62 229.08C171.9 229.8 171.06 230.365 170.1 230.775C169.15 231.185 168.13 231.39 167.04 231.39C165.99 231.39 165.07 231.15 164.28 230.67C163.5 230.18 162.86 229.555 162.36 228.795V231H159.24V208.5H162.36V218.175C162.86 217.405 163.5 216.78 164.28 216.3C165.07 215.82 165.99 215.58 167.04 215.58ZM167.01 228.36C167.88 228.36 168.675 228.14 169.395 227.7C170.115 227.26 170.685 226.67 171.105 225.93C171.535 225.19 171.75 224.375 171.75 223.485C171.75 222.575 171.535 221.75 171.105 221.01C170.675 220.27 170.1 219.685 169.38 219.255C168.66 218.815 167.87 218.595 167.01 218.595C166.14 218.595 165.375 218.815 164.715 219.255C164.055 219.695 163.54 220.285 163.17 221.025C162.8 221.765 162.615 222.585 162.615 223.485C162.615 224.385 162.8 225.205 163.17 225.945C163.54 226.685 164.055 227.275 164.715 227.715C165.375 228.145 166.14 228.36 167.01 228.36ZM177.77 231V208.5H180.89V231H177.77ZM191.474 231.39C190.094 231.39 188.834 231.035 187.694 230.325C186.564 229.615 185.659 228.665 184.979 227.475C184.309 226.275 183.974 224.95 183.974 223.5C183.974 222.4 184.169 221.375 184.559 220.425C184.949 219.465 185.484 218.625 186.164 217.905C186.854 217.175 187.654 216.605 188.564 216.195C189.474 215.785 190.444 215.58 191.474 215.58C192.624 215.58 193.679 215.82 194.639 216.3C195.599 216.77 196.419 217.425 197.099 218.265C197.779 219.095 198.279 220.055 198.599 221.145C198.919 222.225 199.014 223.375 198.884 224.595H187.319C187.449 225.285 187.699 225.91 188.069 226.47C188.449 227.02 188.929 227.455 189.509 227.775C190.099 228.095 190.754 228.26 191.474 228.27C192.234 228.27 192.924 228.08 193.544 227.7C194.174 227.32 194.689 226.795 195.089 226.125L198.254 226.86C197.654 228.19 196.749 229.28 195.539 230.13C194.329 230.97 192.974 231.39 191.474 231.39ZM187.214 222.21H195.734C195.634 221.49 195.379 220.84 194.969 220.26C194.569 219.67 194.064 219.205 193.454 218.865C192.854 218.515 192.194 218.34 191.474 218.34C190.764 218.34 190.104 218.51 189.494 218.85C188.894 219.19 188.394 219.655 187.994 220.245C187.604 220.825 187.344 221.48 187.214 222.21Z" fill="#939393"/>
<defs>
<clipPath id="clip0_5481_2013">
<rect width="90" height="90" fill="white" transform="translate(90 60)"/>
</clipPath>
</defs>
</svg>
